<svg version="1.1" id="Layer_1" xmlns="http://www.w3.org/2000/svg" xmlns:xlink="http://www.w3.org/1999/xlink" x="0px" y="0px"
	 width="100%" viewBox="0 0 1024 1024" enable-background="new 0 0 1024 1024" xml:space="preserve" class="background">
<path fill="#000000" opacity="1.000000" stroke="none" 
	d="
M403.671326,511.671082 
	C414.669678,500.765991 427.798065,495.861908 442.738342,495.811127 
	C481.565277,495.679230 520.392883,495.742401 559.219971,495.642029 
	C569.378845,495.615753 579.536621,495.260956 589.695374,495.085022 
	C600.728699,494.893951 608.490417,487.249390 608.638672,476.129333 
	C608.771912,466.132629 608.670654,456.132782 608.671326,446.134338 
	C608.674500,395.642120 608.686707,345.149872 608.673950,294.657654 
	C608.670471,280.702545 601.789368,273.883972 587.734375,273.884857 
	C540.075134,273.887939 492.415863,273.912811 444.756622,273.926849 
	C429.334869,273.931396 423.334747,280.779541 423.687012,296.144592 
	C424.171600,317.283295 423.836700,338.440430 423.895935,359.589508 
	C423.905090,362.869354 422.692871,364.398407 419.158813,364.320312 
	C410.330597,364.125214 401.495117,364.117676 392.664886,364.226471 
	C389.117157,364.270203 387.588989,363.095123 387.608246,359.328247 
	C387.729218,335.665985 387.257690,311.992859 387.812408,288.342804 
	C388.408020,262.948883 408.941498,241.465164 434.132202,238.570633 
	C438.618927,238.055099 443.084229,237.814804 447.582855,237.814377 
	C494.408966,237.809937 541.235168,237.742828 588.061096,237.819778 
	C608.091980,237.852707 624.234863,245.644714 635.570557,262.536652 
	C641.206909,270.935638 644.141846,280.302673 644.162415,290.302948 
	C644.290283,352.459686 644.420959,414.617798 644.126282,476.773438 
	C643.978882,507.870453 620.479858,530.828064 589.543213,531.440491 
	C541.224060,532.397034 492.901672,531.678101 444.581451,531.911316 
	C436.112671,531.952148 429.144043,534.304626 425.284149,542.492737 
	C423.841370,545.553345 423.385559,548.839661 423.384979,552.201111 
	C423.374634,613.357910 423.340942,674.514648 423.369202,735.671448 
	C423.374817,747.863403 430.489960,754.890991 442.624695,754.897339 
	C490.950592,754.922607 539.279480,754.631226 587.600403,755.125366 
	C600.743713,755.259766 609.164307,745.768982 608.834412,733.692078 
	C608.261414,712.711060 608.827820,691.701111 608.572815,670.707520 
	C608.512146,665.712524 610.024536,663.814148 615.023621,663.958618 
	C623.181946,664.194641 631.353699,664.087891 639.517212,663.961548 
	C642.877380,663.909607 644.306519,665.117981 644.288574,668.617554 
	C644.163513,692.946228 644.749878,717.294556 643.963257,741.599487 
	C643.099670,768.281067 618.934753,790.916260 591.713318,791.033569 
	C541.888855,791.248291 492.061218,791.231873 442.237396,790.915710 
	C410.170807,790.712280 387.695770,767.663147 387.675568,735.648132 
	C387.636810,674.157593 387.637878,612.667053 387.703217,551.176575 
	C387.719299,536.061951 392.556274,522.756592 403.671326,511.671082 
z"/>
<path fill="#000000" opacity="1.000000" stroke="none" 
	d="
M635.000000,609.933472 
	C667.331543,609.926880 699.163208,609.949280 730.994690,609.903503 
	C750.796204,609.875000 760.905457,599.840576 760.928528,580.055664 
	C760.989075,528.058655 760.977234,476.061584 760.964905,424.064545 
	C760.960815,406.990295 749.556152,394.810272 732.403503,394.513458 
	C713.583618,394.187836 694.750061,394.665863 675.922302,394.761810 
	C672.595886,394.778778 669.268921,394.605835 665.941772,394.583862 
	C663.607849,394.568451 662.694519,393.381470 662.700500,391.146851 
	C662.725891,381.647705 662.739807,372.148346 662.692444,362.649384 
	C662.675415,359.221802 665.034180,359.055237 667.449585,359.037781 
	C673.782104,358.992065 680.116516,358.948395 686.447937,359.046356 
	C703.603027,359.311768 720.754883,358.591827 737.919250,359.597748 
	C769.523376,361.449921 796.188599,388.758575 796.276428,420.331146 
	C796.431274,475.994263 796.411621,531.658264 796.301453,587.321594 
	C796.243958,616.381592 770.777100,643.747681 741.845581,645.258972 
	C709.219177,646.963257 676.538147,645.773743 643.882202,645.917847 
	C597.552490,646.122253 551.221008,645.923035 504.890259,645.889771 
	C497.877502,645.884705 497.823151,645.841064 497.797028,639.059937 
	C497.766876,631.227112 498.092499,623.378174 497.680054,615.567017 
	C497.408936,610.432129 499.909210,609.907227 504.008118,609.913940 
	C547.505310,609.984985 591.002686,609.943909 635.000000,609.933472 
z"/>
<path fill="#000000" opacity="1.000000" stroke="none" 
	d="
M264.838257,659.278320 
	C244.342484,645.968994 235.242203,626.747925 235.110931,603.288940 
	C234.814484,550.310669 234.892654,497.329468 235.008453,444.349854 
	C235.086548,408.622498 261.288208,382.700775 297.054413,382.680939 
	C369.193787,382.640900 441.333160,382.643280 513.472534,382.626251 
	C516.804565,382.625458 520.136841,382.625244 523.468628,382.592499 
	C534.045837,382.488586 534.047668,382.482697 533.957031,392.919861 
	C533.897705,399.743805 533.685303,406.570770 533.829834,413.390289 
	C533.904114,416.894714 532.515015,418.154083 529.142334,418.143402 
	C517.980469,418.108002 506.818146,418.254150 495.656006,418.256378 
	C429.847595,418.269531 364.039154,418.242950 298.230743,418.277344 
	C285.648773,418.283936 276.443237,424.181335 272.479706,434.393005 
	C271.242432,437.580719 271.087830,440.873047 271.087128,444.218262 
	C271.076080,497.864075 271.066650,551.509888 271.031586,605.155701 
	C271.020874,621.539185 282.147644,632.859070 298.597595,632.923950 
	C319.922577,633.007996 341.248077,632.953308 362.573273,633.000793 
	C368.704468,633.014465 369.096893,633.461304 369.103424,639.534790 
	C369.110779,646.365479 369.101746,653.196228 369.079346,660.026855 
	C369.050079,668.948975 369.030640,669.217346 359.872070,668.848267 
	C341.050598,668.089783 322.229156,668.531067 303.408203,668.453979 
	C297.917786,668.431519 292.469177,668.531860 286.991272,667.592896 
	C279.153625,666.249512 271.902039,663.599487 264.838257,659.278320 
z"/>
<path fill="#000000" opacity="1.000000" stroke="none" 
	d="
M705.841980,418.058014 
	C714.677124,418.082550 722.521912,419.356628 728.818359,425.714661 
	C733.401245,430.342499 735.882751,435.843414 736.232361,442.157318 
	C736.591125,448.635803 736.180359,455.153473 736.388977,461.644928 
	C736.504883,465.252533 734.933228,466.315979 731.619385,466.183380 
	C727.460266,466.017029 723.283997,465.978333 719.126770,466.156342 
	C715.329773,466.318909 713.629944,464.965576 713.820496,460.966278 
	C714.058044,455.979401 713.803040,450.971100 713.886536,445.974182 
	C713.952942,442.003235 712.207947,440.146057 708.168579,440.257843 
	C703.506775,440.386871 698.839172,440.297546 694.174194,440.321808 
	C690.930603,440.338684 689.230042,441.942627 689.224304,445.234924 
	C689.199646,459.396912 689.166931,473.558899 689.158813,487.720886 
	C689.156799,491.196533 690.959290,492.931030 694.428955,492.933563 
	C699.593872,492.937317 704.759277,492.890686 709.923645,492.945892 
	C725.426392,493.111694 736.243958,503.991364 736.307617,519.533386 
	C736.364258,533.362183 736.372925,547.191467 736.325256,561.020325 
	C736.273071,576.142517 725.342468,587.084656 710.118103,587.285339 
	C704.121033,587.364441 698.121643,587.348389 692.124023,587.293579 
	C678.965820,587.173279 668.565308,578.034790 666.629700,565.066528 
	C665.661133,558.577454 666.076782,552.116760 666.567078,545.629028 
	C666.738342,543.362549 667.751953,542.165649 669.892639,542.116211 
	C675.053711,541.997009 680.218201,541.985779 685.381104,541.999390 
	C688.175232,542.006714 689.083374,543.763611 689.085449,546.276001 
	C689.089294,550.940857 689.105896,555.605774 689.140808,560.270508 
	C689.168152,563.932007 690.890381,565.776184 694.699646,565.682739 
	C699.195435,565.572388 703.696167,565.640503 708.194519,565.666504 
	C711.815613,565.687439 713.846313,564.120728 713.848450,560.308044 
	C713.856079,546.979065 713.901062,533.650085 713.907898,520.321106 
	C713.909668,516.797485 712.027283,515.198730 708.565613,515.228760 
	C703.567505,515.272034 698.568604,515.302063 693.570618,515.266968 
	C678.592468,515.161682 667.722656,505.737427 666.644897,490.701141 
	C665.430603,473.758636 665.477966,456.728516 666.830811,439.783203 
	C667.666870,429.311035 677.001770,420.449310 687.902527,418.604431 
	C693.699524,417.623352 699.542725,418.217834 705.841980,418.058014 
z"/>
<path fill="#000000" opacity="1.000000" stroke="none" 
	d="
M808.267700,726.000000 
	C808.004700,735.630676 809.132324,744.828796 806.933838,753.865662 
	C801.585205,775.850891 783.027832,790.793274 760.189026,790.993042 
	C735.709229,791.207214 711.226074,791.042236 686.744385,791.014404 
	C685.143433,791.012573 683.359619,791.364075 682.215149,789.644714 
	C682.202881,787.698181 683.782715,786.803467 684.913025,785.663635 
	C693.822327,776.679565 702.808533,767.771179 711.658752,758.729553 
	C713.642456,756.703003 715.701355,755.469421 718.593140,755.448059 
	C731.745056,755.351074 744.895996,755.138977 758.047791,755.022339 
	C767.908997,754.934814 772.826050,750.216431 772.894775,740.367310 
	C772.981873,727.877258 772.919861,715.385986 772.892029,702.895264 
	C772.885986,700.179688 773.086304,697.651123 775.203796,695.534180 
	C785.094482,685.646484 794.908203,675.681702 804.774963,665.769897 
	C805.329346,665.212952 806.110901,664.882019 808.266113,663.490967 
	C808.266113,684.905945 808.266113,705.202942 808.267700,726.000000 
z"/>
<path fill="#000000" opacity="1.000000" stroke="none" 
	d="
M259.064606,318.957458 
	C260.236877,327.211487 257.313782,333.016663 251.523911,338.295197 
	C243.288620,345.803253 235.744812,354.069031 227.885361,361.991028 
	C226.982468,362.901093 226.267227,364.163025 224.545044,364.118927 
	C222.898163,362.546204 223.660400,360.432220 223.655914,358.575134 
	C223.598709,334.923431 224.210327,311.252716 223.456833,287.624939 
	C222.695236,263.742981 240.987259,238.468536 271.925110,237.929947 
	C296.069519,237.509628 320.226654,237.817047 344.378113,237.814102 
	C345.845642,237.813934 347.365509,237.725113 348.615112,238.738510 
	C349.012421,241.294403 347.054199,242.408890 345.753174,243.742538 
	C336.915100,252.802109 327.954498,261.742371 319.140411,270.824921 
	C317.192871,272.831818 315.016205,273.292755 312.403564,273.279114 
	C299.745148,273.213013 287.086151,273.213135 274.427521,273.250549 
	C263.957825,273.281525 259.131042,278.109985 259.104736,288.484314 
	C259.079407,298.478058 259.078094,308.471832 259.064606,318.957458 
z"/>
<path fill="#000000" opacity="1.000000" stroke="none" 
	d="
M255.976303,788.321167 
	C234.858795,780.220093 223.727127,764.315247 223.645279,742.267700 
	C223.554962,717.936707 223.601303,693.605225 223.621338,669.273926 
	C223.622513,667.843628 223.175949,666.274475 224.415497,664.964539 
	C226.362183,664.886780 227.241730,666.488098 228.359985,667.604492 
	C237.322678,676.552734 246.182755,685.604858 255.225784,694.470642 
	C257.782074,696.976807 259.120453,699.592957 259.035400,703.241455 
	C258.751923,715.399719 258.795013,727.565735 258.502319,739.723633 
	C258.267914,749.460571 263.791290,755.719543 273.494568,755.830750 
	C286.325073,755.977783 299.159027,755.906311 311.990631,755.813110 
	C314.831512,755.792542 317.123138,756.488647 319.164917,758.560242 
	C328.171539,767.698059 337.279449,776.735962 346.310120,785.850281 
	C347.434204,786.984802 348.885468,788.036804 348.706726,790.063660 
	C347.068451,791.631226 344.970032,791.122375 343.062042,791.124939 
	C319.897369,791.156738 296.732513,791.166748 273.567993,791.090759 
	C267.721802,791.071594 261.950562,790.257263 255.976303,788.321167 
z"/>
<path fill="#000000" opacity="1.000000" stroke="none" 
	d="
M756.842346,273.004272 
	C744.370422,272.979919 732.377258,272.927002 720.384277,272.952057 
	C717.257568,272.958588 714.561707,272.292053 712.249023,269.949188 
	C703.123291,260.704193 693.891663,251.563950 684.725464,242.358734 
	C683.720215,241.349258 682.293762,240.489609 682.680420,238.645187 
	C683.883423,237.319580 685.470337,237.790894 686.892456,237.788681 
	C711.045288,237.751129 735.199097,237.618271 759.350891,237.778381 
	C782.647278,237.932800 801.115234,252.260681 806.635376,274.152588 
	C807.610779,278.020935 808.248840,281.967438 808.250610,285.983215 
	C808.261658,310.469238 808.274109,334.955261 808.266357,359.441284 
	C808.265930,360.734833 808.557983,362.111145 807.588867,363.303345 
	C805.734802,363.890900 804.917664,362.337189 803.942993,361.352203 
	C794.573486,351.884430 785.289490,342.331726 775.883789,332.900299 
	C773.571045,330.581268 772.848450,328.005493 772.885132,324.811768 
	C773.022644,312.820190 773.020447,300.825928 772.952148,288.833374 
	C772.886414,277.283234 768.838684,273.254425 756.842346,273.004272 
z"/>
<path fill="#000000" opacity="1.000000" stroke="none" 
	d="
M304.745544,603.364746 
	C297.771576,597.352295 294.315277,590.160828 294.633972,581.186829 
	C294.817078,576.030396 294.715424,570.860596 294.623322,565.698975 
	C294.574707,562.974609 295.688507,561.733337 298.454895,561.766724 
	C303.283905,561.825012 308.116241,561.821594 312.943848,561.705078 
	C316.267487,561.624939 317.301300,563.336487 317.252350,566.357605 
	C317.174164,571.186279 317.349579,576.020630 317.205627,580.846313 
	C317.077087,585.154419 319.107697,586.890503 323.254303,586.795532 
	C327.582428,586.696350 331.917938,586.662476 336.243988,586.797974 
	C340.954010,586.945435 342.794189,584.749695 342.759247,580.135498 
	C342.654633,566.312378 342.749298,552.487854 342.755768,538.663879 
	C342.770233,507.684784 342.771088,476.705688 342.794983,445.726593 
	C342.800110,439.074677 342.861267,439.042114 349.460693,438.989349 
	C352.625092,438.964050 355.808105,439.174591 358.949829,438.900848 
	C363.595123,438.496124 365.864075,440.057159 365.331390,445.032684 
	C365.049347,447.667206 365.284851,450.357056 365.285095,453.021912 
	C365.289062,495.659790 365.305878,538.297668 365.287262,580.935547 
	C365.282532,591.742920 361.737274,601.586365 351.253540,605.296448 
	C336.000977,610.694153 320.155762,611.772949 304.745544,603.364746 
z"/>
<path fill="#000000" opacity="1.000000" stroke="none" 
	d="
M448.705139,475.460876 
	C448.583893,469.849884 444.832428,466.169952 442.555603,461.857208 
	C440.801788,458.535126 440.765869,456.272583 443.606079,453.594360 
	C449.055847,448.455444 454.290436,443.079834 459.458344,437.653900 
	C462.146149,434.831940 464.852570,433.938538 468.221863,436.287659 
	C468.625885,436.569336 469.202789,436.632172 469.555145,436.954376 
	C475.830231,442.691925 482.155396,442.067993 489.300842,438.166290 
	C492.755676,436.279816 495.068512,434.825897 496.103088,430.675140 
	C498.992920,419.081207 499.251038,419.142029 511.251923,419.047791 
	C516.082458,419.009888 520.927063,419.208801 525.739685,418.900635 
	C530.276672,418.610138 533.150818,420.090668 533.977295,424.764282 
	C534.092285,425.414642 534.474243,426.024078 534.551392,426.673950 
	C535.387329,433.717010 539.278687,437.317139 546.083374,439.741333 
	C551.243713,441.579742 554.920837,441.513885 559.481140,438.793335 
	C568.744446,433.267059 568.872742,433.482574 576.319214,441.319275 
	C580.332886,445.543274 584.321228,449.791779 588.370789,453.981171 
	C591.049561,456.752472 591.658630,459.535645 589.086426,462.780243 
	C587.750549,464.465393 586.827087,466.470795 585.618042,468.264587 
	C583.463562,471.461243 581.133362,474.583344 583.809753,479.229614 
	C576.379395,480.542084 569.507202,480.321411 562.656067,479.482361 
	C560.959351,479.274567 560.193054,477.338226 559.212463,476.020416 
	C538.824158,448.621979 497.451569,446.163940 475.875732,472.539917 
	C467.819702,482.388245 459.091705,479.300415 450.068329,479.810333 
	C447.294586,479.967041 447.751953,477.648621 448.705139,475.460876 
z"/>
<path fill="#000000" opacity="1.000000" stroke="none" 
	d="
M444.821320,560.883423 
	C446.900879,556.693359 450.693451,553.296265 447.391876,547.850952 
	C455.052124,546.527588 462.129120,546.871399 469.191559,547.348022 
	C471.028595,547.472107 471.819550,549.306763 472.763641,550.625000 
	C492.508789,578.194702 537.110474,579.767639 559.081299,550.641663 
	C561.061829,548.016052 563.273376,546.677734 566.637695,546.796265 
	C572.067932,546.987610 577.509827,546.847717 583.753479,546.847717 
	C580.460083,554.896301 586.198059,559.111023 589.143616,564.146057 
	C591.247375,567.742065 591.026306,570.026428 588.132935,572.787476 
	C582.591492,578.075317 577.203247,583.528809 571.880676,589.038452 
	C569.515930,591.486267 567.347412,591.632812 564.369202,590.008179 
	C552.073425,583.300476 552.050171,583.414368 539.424561,589.581665 
	C537.109680,590.712341 536.741821,592.770996 536.106995,594.823669 
	C532.270020,607.230408 532.264526,607.235962 519.421143,607.252014 
	C514.423950,607.258240 509.423523,607.108521 504.430634,607.247864 
	C501.076050,607.341492 498.626556,606.087891 498.372040,602.739075 
	C497.599854,592.579102 491.188019,588.017456 482.352844,585.167114 
	C479.538849,584.259338 477.603119,584.164185 475.031250,585.743958 
	C461.929199,593.791748 465.117004,593.028748 454.830078,583.688110 
	C451.752380,580.893494 448.790283,577.958496 445.926086,574.944458 
	C439.811737,568.510132 439.395752,570.061279 444.821320,560.883423 
z"/>
<path fill="#000000" opacity="1.000000" stroke="none" 
	d="
M492.361206,344.897003 
	C481.443298,346.137573 470.820831,345.915039 460.202423,345.836731 
	C457.723175,345.818451 456.715607,344.464142 456.728210,342.008331 
	C456.777832,332.361572 456.797424,322.713928 456.707092,313.067688 
	C456.681122,310.298828 457.892822,309.059845 460.535370,309.064789 
	C470.181061,309.082886 479.826965,309.095520 489.472168,309.178986 
	C491.441040,309.196014 493.212189,309.876160 493.191559,312.278931 
	C493.098938,323.059814 493.981171,333.857117 492.361206,344.897003 
z"/>
<path fill="#000000" opacity="1.000000" stroke="none" 
	d="
M548.054199,719.259644 
	C538.780457,719.297546 538.781982,719.297546 538.790588,710.761902 
	C538.798279,703.115723 538.926331,695.466675 538.753845,687.824524 
	C538.671082,684.158752 540.083618,682.757935 543.710571,682.813171 
	C552.518372,682.947327 561.330566,682.947144 570.138794,682.835815 
	C573.858704,682.788757 575.154175,684.517639 575.049500,688.011719 
	C574.775818,697.145020 574.542114,706.280823 574.437439,715.417297 
	C574.400940,718.605774 572.700745,719.306458 569.988586,719.284363 
	C562.841553,719.226135 555.693726,719.261414 548.054199,719.259644 
z"/>
</svg>
