<svg width="16" height="16" viewBox="0 0 16 16" fill="none" xmlns="http://www.w3.org/2000/svg">
<path fill-rule="evenodd" clip-rule="evenodd" d="M8.24408 6.65504C8.05415 6.43604 7.96859 6.1454 8.00959 5.85842L8.50238 2.40889L3.10978 8.99984H6.99954C7.28943 8.99984 7.56505 9.12564 7.75499 9.34464C7.94493 9.56364 8.03048 9.85428 7.98949 10.1413L7.4967 13.5908L12.8893 6.99984H8.99954C8.70965 6.99984 8.43402 6.87404 8.24408 6.65504ZM9.74593 0.775073C9.81752 0.273947 9.18453 -0.00404273 8.86398 0.387745L1.66768 9.18322C1.40057 9.50969 1.63285 9.99984 2.05466 9.99984H6.99954L6.25314 15.2246C6.18155 15.7257 6.81454 16.0037 7.1351 15.6119L14.3314 6.81646C14.5985 6.48999 14.3662 5.99984 13.9444 5.99984H8.99954L9.74593 0.775073Z" fill="#253627"/>
<path d="M8.00959 5.85842C7.96859 6.1454 8.05415 6.43604 8.24408 6.65504C8.43402 6.87404 8.70965 6.99984 8.99954 6.99984H12.8893L7.4967 13.5908L7.98949 10.1413C8.03048 9.85428 7.94493 9.56364 7.75499 9.34464C7.56505 9.12564 7.28943 8.99984 6.99954 8.99984H3.10978L8.50238 2.40889L8.00959 5.85842Z" fill="#253627"/>
<path fill-rule="evenodd" clip-rule="evenodd" d="M8.24408 6.65504C8.05415 6.43604 7.96859 6.1454 8.00959 5.85842L8.50238 2.40889L3.10978 8.99984H6.99954C7.28943 8.99984 7.56505 9.12564 7.75499 9.34464C7.94493 9.56364 8.03048 9.85428 7.98949 10.1413L7.4967 13.5908L12.8893 6.99984H8.99954C8.70965 6.99984 8.43402 6.87404 8.24408 6.65504ZM9.74593 0.775073C9.81752 0.273947 9.18453 -0.00404273 8.86398 0.387745L1.66768 9.18322C1.40057 9.50969 1.63285 9.99984 2.05466 9.99984H6.99954L6.25314 15.2246C6.18155 15.7257 6.81454 16.0037 7.1351 15.6119L14.3314 6.81646C14.5985 6.48999 14.3662 5.99984 13.9444 5.99984H8.99954L9.74593 0.775073Z" fill="#57965C"/>
</svg>
