<svg version="1.1" id="Layer_1" xmlns="http://www.w3.org/2000/svg" xmlns:xlink="http://www.w3.org/1999/xlink" x="0px" y="0px" width="100%" viewBox="0 0 500 500" enable-background="new 0 0 500 500" xml:space="preserve">
	<path fill="#000000" opacity="1.000000" stroke="none" d=" M381.000519,146.833313   C379.838501,146.888870 378.676514,146.992966 377.514496,146.993073   C298.871460,147.000702 220.228439,146.999969 141.585403,146.999969   C140.600174,146.999969 139.614944,146.999969 138.314758,146.999969   C138.314758,129.771240 138.314758,112.699699 138.314758,95.296661   C218.865402,95.296661 299.584198,95.296661 380.834991,95.296661   C381.207886,111.744270 381.585754,128.411728 381.714111,145.636810   C381.248566,146.362808 381.093872,146.575775 381.000519,146.833313  z"/><path fill="#000000" opacity="1.000000" stroke="none" d=" M381.816864,170.998703   C381.869690,177.814606 381.967438,184.630508 381.968323,191.446411   C381.976410,252.990646 381.967529,314.534882 381.714111,376.636780   C381.248535,377.362762 381.093842,377.575745 381.000519,377.833313   C364.202850,377.833313 347.405151,377.833313 330.293518,377.833313   C330.293518,308.708984 330.293518,239.554352 330.293518,170.011673   C346.897125,170.011673 363.488159,170.011673 380.634216,170.266541   C381.349579,170.744736 381.558807,170.903839 381.816864,170.998703  z"/>
	<path fill="#000000" opacity="1.000000" stroke="none" d=" M233.996658,278.000000   C233.996658,251.678009 233.996658,225.856033 233.996658,199.731934   C251.290405,199.731934 268.366821,199.731934 285.722717,199.731934   C285.722717,259.015778 285.722717,318.247253 285.722717,377.756287   C268.684570,377.756287 251.615601,377.756287 233.996658,377.756287   C233.996658,344.693909 233.996658,311.596954 233.996658,278.000000  z"/>

	<path fill="#000000" opacity="1.000000" stroke="none" d=" M189.835114,230.006516   C189.891190,253.476059 189.971100,276.945557 189.996933,300.415131   C190.025162,326.048492 190.003342,351.681885 190.003342,377.674286   C172.741196,377.674286 155.568237,377.674286 138.011307,377.674286   C138.011307,328.728394 138.011307,279.827728 138.267792,230.374481   C138.754852,229.667343 138.915421,229.458878 139.006027,229.196503   C155.361221,229.149780 171.716431,229.103058 188.628372,229.303894   C189.359222,229.763916 189.575882,229.915604 189.835114,230.006516  z"/>
</svg>
